<svg width="150" height="130" viewBox="0 0 816 1013" fill="none" xmlns="http://www.w3.org/2000/svg">
    
    <path d="M231.716 472.38C231.716 454.218 215.897 433.497 202.619 417.286C189.283 433.558 173.464 454.218 173.464 472.38C173.464 489.261 187.146 508.398 199.732 524V779.541C199.732 781.187 201.002 782.527 202.561 782.527C204.12 782.527 205.39 781.187 205.39 779.541V524C217.976 508.337 231.659 489.261 231.659 472.38" fill="white"/>
    <path d="M121.426 498.87C122.87 520.323 125.583 546.712 137.765 559.571C149.946 572.431 175.003 575.234 195.267 576.819C193.824 555.366 191.11 528.977 178.928 516.118C166.747 503.258 141.691 500.455 121.426 498.87Z" fill="white"/>
    <path d="M121.426 576.751C122.87 598.204 125.583 624.593 137.765 637.452C149.946 650.311 175.003 653.115 195.267 654.699C193.824 633.247 191.11 606.858 178.928 593.998C166.747 581.139 141.691 578.336 121.426 576.751Z" fill="white"/>
    <path d="M121.426 654.483C122.87 675.935 125.583 702.324 137.765 715.184C149.946 728.043 175.003 730.846 195.267 732.431C193.824 710.978 191.11 684.589 178.928 671.73C166.747 658.871 141.691 656.067 121.426 654.483Z" fill="white"/>
    <path d="M210.199 576.819C230.521 575.295 255.52 572.431 267.701 559.571C279.883 546.712 282.539 520.262 284.04 498.87C263.718 500.394 238.719 503.258 226.538 516.118C214.356 528.977 211.7 555.427 210.199 576.819Z" fill="white"/>
    <path d="M210.199 654.638C230.521 653.114 255.52 650.25 267.701 637.391C279.883 624.531 282.539 598.081 284.04 576.69C263.718 578.213 238.719 581.078 226.538 593.937C214.356 606.796 211.7 633.246 210.199 654.638Z" fill="white"/>
    <path d="M210.199 732.492C230.521 730.968 255.52 728.104 267.701 715.244C279.883 702.385 282.539 675.935 284.04 654.543C263.718 656.067 238.719 658.931 226.538 671.791C214.356 684.65 211.7 711.1 210.199 732.492Z" fill="white"/>
    <path d="M442.277 495.891C442.277 475.474 424.553 452.254 409.6 434.032C394.647 452.254 376.923 475.474 376.923 495.891C376.923 514.845 392.28 536.236 406.425 553.849V840.533C406.425 842.362 407.811 843.885 409.6 843.885C411.39 843.885 412.776 842.362 412.776 840.533V553.849C426.92 536.297 442.277 514.905 442.277 495.891Z" fill="white"/>
    <path d="M318.589 525.754C320.206 549.766 323.266 579.446 336.891 593.89C350.574 608.334 378.632 611.503 401.437 613.209C399.82 589.197 396.76 559.517 383.135 545.073C369.452 530.629 341.336 527.46 318.589 525.754Z" fill="white"/>
    <path d="M318.589 613.06C320.206 637.073 323.266 666.753 336.891 681.197C350.574 695.641 378.632 698.81 401.437 700.516C399.82 676.504 396.76 646.824 383.135 632.38C369.452 617.936 341.336 614.767 318.589 613.06Z" fill="white"/>
    <path d="M318.589 700.333C320.206 724.345 323.266 754.025 336.891 768.469C350.574 782.913 378.632 786.082 401.437 787.789C399.82 763.777 396.76 734.097 383.135 719.653C369.452 705.209 341.336 702.04 318.589 700.333Z" fill="white"/>
    <path d="M418.022 613.216C440.769 611.51 468.885 608.28 482.567 593.897C496.25 579.453 499.252 549.834 500.869 525.76C478.122 527.467 450.006 530.697 436.323 545.08C422.64 559.524 419.638 589.204 418.022 613.216Z" fill="white"/>
    <path d="M418.022 700.455C440.769 698.749 468.885 695.519 482.567 681.136C496.25 666.692 499.252 637.073 500.869 613C478.122 614.706 450.006 617.936 436.323 632.319C422.64 646.763 419.638 676.443 418.022 700.455Z" fill="white"/>
    <path d="M418.022 787.728C440.769 786.022 468.885 782.792 482.567 768.409C496.25 753.965 499.252 724.285 500.869 700.273C478.122 701.979 450.006 705.209 436.323 719.592C422.64 734.036 419.638 763.716 418.022 787.728Z" fill="white"/>
    <path d="M635.105 472.38C635.105 454.218 619.286 433.497 606.007 417.286C592.671 433.558 576.852 454.218 576.852 472.38C576.852 489.261 590.535 508.398 603.121 524V779.541C603.121 781.187 604.391 782.527 605.95 782.527C607.508 782.527 608.778 781.187 608.778 779.541V524C621.364 508.337 635.047 489.261 635.047 472.38" fill="white"/>
    <path d="M524.872 498.87C526.316 520.323 529.029 546.712 541.211 559.571C553.392 572.431 578.448 575.234 598.713 576.819C597.269 555.366 594.556 528.977 582.374 516.118C570.193 503.258 545.137 500.455 524.872 498.87Z" fill="white"/>
    <path d="M524.872 576.751C526.316 598.204 529.029 624.593 541.211 637.452C553.392 650.311 578.448 653.115 598.713 654.699C597.269 633.247 594.556 606.858 582.374 593.998C570.193 581.139 545.137 578.336 524.872 576.751Z" fill="white"/>
    <path d="M524.872 654.483C526.316 675.935 529.029 702.324 541.211 715.184C553.392 728.043 578.448 730.846 598.713 732.431C597.269 710.978 594.556 684.589 582.374 671.73C570.193 658.871 545.137 656.067 524.872 654.483Z" fill="white"/>
    <path d="M613.531 576.819C633.853 575.295 658.851 572.431 671.033 559.571C683.214 546.712 685.87 520.262 687.371 498.87C667.049 500.394 642.051 503.258 629.869 516.118C617.687 528.977 615.032 555.427 613.531 576.819Z" fill="white"/>
    <path d="M613.531 654.638C633.853 653.114 658.851 650.25 671.033 637.391C683.214 624.531 685.87 598.081 687.371 576.69C667.049 578.213 642.051 581.078 629.869 593.937C617.687 606.796 615.032 633.246 613.531 654.638Z" fill="white"/>
    <path d="M613.531 732.492C633.853 730.968 658.851 728.104 671.033 715.244C683.214 702.385 685.87 675.935 687.371 654.543C667.049 656.067 642.051 658.931 629.869 671.791C617.687 684.65 615.032 711.1 613.531 732.492Z" fill="white"/>
    <path d="M130.679 327.074C144.708 322.808 160.643 307.693 178.598 294.895C195.398 282.889 233.502 270.761 241.642 262.838C243.663 230.415 246.203 175.748 231.943 162.706C223.745 156.429 204.231 148.75 188.817 140.217C169.303 129.369 148.519 117.851 149.789 106.941C152.329 85.3061 173.806 94.265 185.122 95.1182C188.817 95.4229 248.744 104.626 266.294 112.366C280.208 118.46 293.602 125.286 305.668 131.015C317.908 136.743 337.595 138.145 346.024 152.772C352.201 163.376 373.909 228.709 380.375 238.216C384.647 241.203 389.728 243.64 396.021 245.103C406.066 247.419 419.518 245.286 433.72 246.444C447.923 247.602 466.397 249.979 499.132 246.871C531.867 243.762 582.961 236.754 602.821 219.811C611.654 203.783 626.203 198.663 645.024 196.53C658.88 194.946 668.29 201.893 678.336 210.913C693.519 224.565 705.528 227.185 716.44 226.149C727.582 225.113 729.776 240.654 716.324 243.031C694.616 246.932 693.231 257.048 664.249 265.702C640.636 272.772 632.553 272.772 614.772 270.944C591.736 268.567 545.434 279.476 509.87 290.202C462.876 304.402 469.111 308.547 442.669 324.148C414.899 340.543 373.389 349.501 357.628 357.729C326.106 374.184 276.398 378.816 255.036 377.841C228.652 376.622 192.165 365.774 177.097 365.713C162.028 365.591 143.323 365.469 121.153 361.142C110.761 359.131 90.959 360.959 90.3816 348.465C90.0352 340.299 101.12 336.033 130.737 327.074" fill="white"/>
    <path d="M762.943 622.672C767.1 720.687 730.728 806.936 662.026 868.038C596.73 926.154 506.493 958.169 407.942 958.169C309.392 958.169 219.155 926.154 153.859 868.038C85.1564 806.876 48.8422 720.628 52.9413 622.672V54.831H762.943V622.672ZM815.942 629.063V0H0V629.063C0 851.493 171.583 1013 408 1013C644.417 1013 816 851.493 816 629.063" fill="white"/>
    
    </svg>
    